<svg id="visual" viewBox="0 0 1440 600" width="1440" height="600" xmlns="http://www.w3.org/2000/svg" xmlns:xlink="http://www.w3.org/1999/xlink" version="1.1"><rect x="0" y="0" width="1440" height="600" fill="#fefae6"></rect><path d="M0 403L34.3 414.7C68.7 426.3 137.3 449.7 205.8 462.5C274.3 475.3 342.7 477.7 411.2 466.2C479.7 454.7 548.3 429.3 617 430.7C685.7 432 754.3 460 823 466.5C891.7 473 960.3 458 1028.8 456.2C1097.3 454.3 1165.7 465.7 1234.2 456.8C1302.7 448 1371.3 419 1405.7 404.5L1440 390L1440 601L1405.7 601C1371.3 601 1302.7 601 1234.2 601C1165.7 601 1097.3 601 1028.8 601C960.3 601 891.7 601 823 601C754.3 601 685.7 601 617 601C548.3 601 479.7 601 411.2 601C342.7 601 274.3 601 205.8 601C137.3 601 68.7 601 34.3 601L0 601Z" fill="#ebf5ff"></path><path d="M0 477L34.3 472.5C68.7 468 137.3 459 205.8 464.3C274.3 469.7 342.7 489.3 411.2 495.8C479.7 502.3 548.3 495.7 617 492.2C685.7 488.7 754.3 488.3 823 478.5C891.7 468.7 960.3 449.3 1028.8 442C1097.3 434.7 1165.7 439.3 1234.2 451C1302.7 462.7 1371.3 481.3 1405.7 490.7L1440 500L1440 601L1405.7 601C1371.3 601 1302.7 601 1234.2 601C1165.7 601 1097.3 601 1028.8 601C960.3 601 891.7 601 823 601C754.3 601 685.7 601 617 601C548.3 601 479.7 601 411.2 601C342.7 601 274.3 601 205.8 601C137.3 601 68.7 601 34.3 601L0 601Z" fill="#c3e0ff"></path><path d="M0 495L34.3 500C68.7 505 137.3 515 205.8 520.3C274.3 525.7 342.7 526.3 411.2 514.7C479.7 503 548.3 479 617 476C685.7 473 754.3 491 823 503.8C891.7 516.7 960.3 524.3 1028.8 513.7C1097.3 503 1165.7 474 1234.2 473.7C1302.7 473.3 1371.3 501.7 1405.7 515.8L1440 530L1440 601L1405.7 601C1371.3 601 1302.7 601 1234.2 601C1165.7 601 1097.3 601 1028.8 601C960.3 601 891.7 601 823 601C754.3 601 685.7 601 617 601C548.3 601 479.7 601 411.2 601C342.7 601 274.3 601 205.8 601C137.3 601 68.7 601 34.3 601L0 601Z" fill="#9acbff"></path><path d="M0 520L34.3 524.2C68.7 528.3 137.3 536.7 205.8 540.7C274.3 544.7 342.7 544.3 411.2 535.7C479.7 527 548.3 510 617 503.2C685.7 496.3 754.3 499.7 823 508.3C891.7 517 960.3 531 1028.8 533.5C1097.3 536 1165.7 527 1234.2 517.7C1302.7 508.3 1371.3 498.7 1405.7 493.8L1440 489L1440 601L1405.7 601C1371.3 601 1302.7 601 1234.2 601C1165.7 601 1097.3 601 1028.8 601C960.3 601 891.7 601 823 601C754.3 601 685.7 601 617 601C548.3 601 479.7 601 411.2 601C342.7 601 274.3 601 205.8 601C137.3 601 68.7 601 34.3 601L0 601Z" fill="#6eb5ff"></path><path d="M0 548L34.3 550.2C68.7 552.3 137.3 556.7 205.8 557C274.3 557.3 342.7 553.7 411.2 551.2C479.7 548.7 548.3 547.3 617 547.5C685.7 547.7 754.3 549.3 823 551.7C891.7 554 960.3 557 1028.8 555.2C1097.3 553.3 1165.7 546.7 1234.2 545C1302.7 543.3 1371.3 546.7 1405.7 548.3L1440 550L1440 601L1405.7 601C1371.3 601 1302.7 601 1234.2 601C1165.7 601 1097.3 601 1028.8 601C960.3 601 891.7 601 823 601C754.3 601 685.7 601 617 601C548.3 601 479.7 601 411.2 601C342.7 601 274.3 601 205.8 601C137.3 601 68.7 601 34.3 601L0 601Z" fill="#329ffe"></path></svg>